<?xml version="1.0" encoding="utf-8"?>
<!-- Generator: Adobe Illustrator 24.1.2, SVG Export Plug-In . SVG Version: 6.00 Build 0)  -->
<svg version="1.1" id="Calque_1" xmlns="http://www.w3.org/2000/svg" xmlns:xlink="http://www.w3.org/1999/xlink" x="0px" y="0px"
	 viewBox="0 0 210 297" style="enable-background:new 0 0 210 297;" xml:space="preserve">
<style type="text/css">
	.st0{fill:none;stroke:#000000;stroke-miterlimit:10;}
</style>
<path d="M187.4,142.1c-0.2-2.3-3.2-3.2-4.6-1.3c-3.5,4.6-10.6,10.1-25.2,13.7c-28.3,7-31.9,7.6-41,13.3c-5.9,3.7-11.7,9-19,20.3
	c-4.8,7.4-9.6,12.8-15.5,15.2c-2.1,0.9-2.3,3.8-0.2,4.8c40.1,18.6,87-38.3,94.9-48.1c0.3-0.4-0.1-1-0.6-0.8
	c-6.5,2.1-55.3,11.4-73.4,39.5c-0.5,0.8-1.8,0.1-1.3-0.7c8.5-18.1,36.7-33.5,79.2-43.5c1.2-0.3,2.1,1,1.5,2
	c-8,13.8-40.6,65.5-88.9,60.6c-44.6-4.5-61.3-46.3-61.2-68.7c0.1-19.7,10.8-32.1,31.3-39.2c1-1.5,10.4-22.8,10.5-32.7
	c0-1.1,2.3,22.5,0.2,29.5c1-0.2,1.9-0.5,2.9-0.7c2.5-1.4,4.6-33.6,4.9-34.5c0.3-1,1.7,32.5,0.6,33.3c5.2-1,10.5-1.9,15.8-2.5
	c6.7-4.3,10.6-32.2,10.6-32.2s-1.7,29.5-3.9,31.3c2.3-0.2,3.7-0.3,6.1-0.5c3.8-3.8,5.1-13.2,5.1-13.3c0.2-1.3,0.7,9.1-1.8,13.1
	c0.6,0,4.2-0.2,4.8-0.2c3.5-9.2,1.8-13.7,1.6-21.1c0-1.3,2.9,14,3.4,20.9c10.7-0.5,15.9-0.4,23.6-0.3c3.5-1.8-5.5-15.9-10.2-21.1
	c-0.1-0.7,18.8,18,17.8,21.3c10.4,0.3,16.9,0.8,16.8,0.6c-17-23.7-46-37.8-78.2-33.7C60.7,70.8,28.6,102,23.4,135
	c-8.9,56.3,39.1,104.1,95.4,95c34-5.5,65-38.7,68.5-72.9C187.7,152,187.8,147,187.4,142.1z"/>
</svg>
