<?xml version="1.0" encoding="UTF-8" standalone="no"?>
<!DOCTYPE svg PUBLIC "-//W3C//DTD SVG 1.1//EN" "http://www.w3.org/Graphics/SVG/1.1/DTD/svg11.dtd">
<svg width="100%" height="100%" viewBox="0 0 166 166" version="1.1" xmlns="http://www.w3.org/2000/svg" xmlns:xlink="http://www.w3.org/1999/xlink" xml:space="preserve" xmlns:serif="http://www.serif.com/" style="fill-rule:evenodd;clip-rule:evenodd;stroke-linejoin:round;stroke-miterlimit:2;">
    <g id="Plan-de-travail1" serif:id="Plan de travail1" transform="matrix(1,0,0,1,-22.3314,-65.6945)">
        <rect x="22.331" y="65.694" width="165.323" height="165.423" style="fill:none;"/>
        <clipPath id="_clip1">
            <rect x="22.331" y="65.694" width="165.323" height="165.423"/>
        </clipPath>
        <g clip-path="url(#_clip1)">
            <g transform="matrix(1,0,0,1,0.331435,0.694472)">
                <path d="M187.4,142.1C187.2,139.8 184.2,138.9 182.8,140.8C179.3,145.4 172.2,150.9 157.6,154.5C129.3,161.5 125.7,162.1 116.6,167.8C110.7,171.5 104.9,176.8 97.6,188.1C92.8,195.5 88,200.9 82.1,203.3C80,204.2 79.8,207.1 81.9,208.1C122,226.7 168.9,169.8 176.8,160C177.1,159.6 176.7,159 176.2,159.2C169.7,161.3 120.9,170.6 102.8,198.7C102.3,199.5 101,198.8 101.5,198C110,179.9 138.2,164.5 180.7,154.5C181.9,154.2 182.8,155.5 182.2,156.5C174.2,170.3 141.6,222 93.3,217.1C48.7,212.6 32,170.8 32.1,148.4C32.2,128.7 42.9,116.3 63.4,109.2C64.4,107.7 73.8,86.4 73.9,76.5C73.9,75.4 76.2,99 74.1,106C75.1,105.8 76,105.5 77,105.3C79.5,103.9 81.6,71.7 81.9,70.8C82.2,69.8 83.6,103.3 82.5,104.1C87.7,103.1 93,102.2 98.3,101.6C105,97.3 108.9,69.4 108.9,69.4C108.9,69.4 107.2,98.9 105,100.7C107.3,100.5 108.7,100.4 111.1,100.2C114.9,96.4 116.2,87 116.2,86.9C116.4,85.6 116.9,96 114.4,100C115,100 118.6,99.8 119.2,99.8C122.7,90.6 121,86.1 120.8,78.7C120.8,77.4 123.7,92.7 124.2,99.6C134.9,99.1 140.1,99.2 147.8,99.3C151.3,97.5 142.3,83.4 137.6,78.2C137.5,77.5 156.4,96.2 155.4,99.5C165.8,99.8 172.3,100.3 172.2,100.1C155.2,76.4 126.2,62.3 94,66.4C60.7,70.8 28.6,102 23.4,135C14.5,191.3 62.5,239.1 118.8,230C152.8,224.5 183.8,191.3 187.3,157.1C187.7,152 187.8,147 187.4,142.1Z" style="fill:white;fill-rule:nonzero;"/>
            </g>
        </g>
    </g>
</svg>
